<mxfile host="app.diagrams.net" modified="2024-09-12T08:51:09.507Z" agent="Mozilla/5.0 (Windows NT 10.0; Win64; x64) AppleWebKit/537.36 (KHTML, like Gecko) Chrome/128.0.0.0 Safari/537.36" version="24.7.2" etag="rvb8Hw4p08ukwIPbkDDl" type="github">
  <diagram name="Page-1" id="eiXiAWF192eu70f8XdBA">
    <mxGraphModel>
      <root>
        <mxCell id="0" />
        <mxCell id="1" parent="0" />
      </root>
    </mxGraphModel>
  </diagram>
</mxfile>
